<svg xmlns="http://www.w3.org/2000/svg" width="7140" height="7140" style=""><rect id="backgroundrect" width="100%" height="100%" x="0" y="0" fill="none" stroke="none"/>

 <g style="" class="currentLayer">
  <title>Layer 1</title>
  <g fill="#e841e8" id="l7fTGatKgJn1bAEvl7ppKUc" class="selected" fill-opacity="1">
   <g id="svg_1" fill="#e841e8" fill-opacity="1">
    <path fill="#e841e8" d="m3314.99821,7035.66637c-1092,-94 -2037,-738 -2515,-1714c-198,-403 -293,-777 -315,-1240c-7,-148 7,-410 30,-571c49,-335 174,-711 332,-1004c461,-853 1304,-1447 2256,-1589c73,-11 171,-23 220,-26l87,-7l0,-114l0,-114l-80,0l-80,0l0,-275l0,-275l435,0l435,0l0,275l0,275l-80,0l-80,0l0,124l0,124l28,6c15,3 56,10 92,16c424,71 846,241 1209,487c128,87 304,223 297,230c-2,2 -32,-16 -67,-40c-246,-171 -594,-324 -911,-401c-209,-51 -346,-67 -613,-73c-216,-4 -272,-2 -410,16c-778,102 -1453,494 -1920,1116c-287,381 -464,810 -542,1305c-26,164 -26,625 0,790c130,833 567,1525 1255,1983c471,314 1080,485 1647,464c539,-21 1021,-172 1463,-458c102,-66 105,-67 57,-24c-27,25 -94,78 -148,118c-336,249 -721,428 -1118,521c-316,74 -660,101 -964,75z" id="p7zsXXx9Y" fill-opacity="1"/>
    <path fill="#e841e8" d="m3545.99821,4486.66637c-178,-32 -332,-158 -402,-330c-33,-78 -44,-220 -24,-309c32,-146 142,-287 277,-355l73,-36l2,-694c3,-687 3,-695 24,-723c36,-49 82,-73 136,-73c66,0 114,24 146,73l27,41l3,691l3,691l62,29c36,18 90,57 130,94c246,232 210,630 -74,820c-103,69 -263,103 -383,81z" id="p11G88LnjX" fill-opacity="1"/>
   </g>
  </g>
  <g fill="#10c0f4" id="l21y43EJ6ycV35dxz6Yw8IN" class="" fill-opacity="1">
   <g id="svg_2" fill="#10c0f4" fill-opacity="1">
    <path d="m3669.99821,6525.66637c-482,-39 -939,-209 -1325,-494c-78,-58 -189,-158 -124,-112c259,183 620,328 954,383c144,23 358,33 520,23c432,-25 815,-153 1170,-390c586,-392 964,-1009 1046,-1709c15,-134 16,-407 0,-530c-47,-379 -179,-735 -383,-1041c-111,-166 -181,-250 -324,-390c-350,-341 -776,-554 -1284,-641c-169,-29 -538,-32 -705,-5c-335,54 -676,183 -942,356c-51,33 -93,58 -93,56c0,-10 167,-138 277,-211c297,-199 677,-344 1043,-399c150,-23 440,-30 596,-16c775,72 1483,492 1907,1133c267,402 396,786 429,1266c29,438 -54,866 -246,1267c-125,260 -273,470 -481,684c-219,225 -419,372 -686,505c-319,159 -633,243 -997,266c-174,11 -201,11 -352,-1z" id="pHm5DbffK" fill="#10c0f4" fill-opacity="1"/>
   </g>
  </g>
 </g>
</svg>