<?xml version="1.0" standalone="no"?>
<!DOCTYPE svg PUBLIC "-//W3C//DTD SVG 20010904//EN"
 "http://www.w3.org/TR/2001/REC-SVG-20010904/DTD/svg10.dtd">
<svg version="1.0" xmlns="http://www.w3.org/2000/svg"
 width="700.000000pt" height="700.000000pt" viewBox="0 0 700.000000 700.000000"
 preserveAspectRatio="xMidYMid meet">
<metadata>
Created by potrace 1.14, written by Peter Selinger 2001-2017
</metadata>
<g transform="translate(0.000000,700.000000) scale(0.100000,-0.100000)"
fill="#000000" stroke="none">
<path d="M3189 6880 c-6 -119 -2 -513 6 -519 6 -4 40 -7 78 -6 l67 2 1 -36 c3
-92 2 -181 -2 -185 -2 -2 -40 -7 -84 -10 -44 -4 -91 -9 -105 -11 -14 -2 -47
-6 -75 -10 -27 -3 -57 -8 -65 -10 -8 -2 -31 -6 -50 -9 -324 -51 -716 -200
-1035 -393 -522 -318 -971 -828 -1194 -1358 -18 -44 -39 -93 -46 -110 -66
-157 -158 -498 -181 -670 -12 -90 -12 -99 -20 -210 -13 -191 -7 -501 11 -596
2 -9 6 -40 10 -70 28 -226 107 -507 210 -744 366 -848 1062 -1466 1939 -1721
106 -31 220 -58 296 -70 14 -2 35 -6 47 -9 12 -3 39 -7 60 -10 21 -3 54 -7 73
-10 173 -25 527 -25 710 0 14 2 45 6 70 9 136 16 312 55 468 102 348 106 703
292 990 521 50 40 92 75 92 78 0 2 -51 -28 -112 -66 -259 -162 -636 -318 -880
-364 -57 -11 -72 -14 -95 -19 -11 -2 -43 -7 -70 -11 -26 -4 -58 -8 -71 -10
-135 -21 -515 -28 -655 -12 -459 51 -892 207 -1257 452 -74 50 -148 102 -164
115 -144 121 -193 166 -276 249 -282 285 -496 623 -633 1002 -39 108 -89 274
-103 344 -2 11 -10 52 -19 90 -32 155 -39 244 -39 520 0 264 6 352 35 496 71
359 181 650 350 930 301 500 732 882 1260 1117 186 84 482 174 649 197 24 4
47 8 50 10 3 2 37 6 75 10 39 4 79 9 90 12 29 6 438 5 515 -2 57 -5 114 -11
185 -19 11 -2 38 -6 60 -11 22 -4 47 -9 55 -10 108 -19 330 -85 460 -137 71
-28 103 -42 225 -99 67 -31 224 -119 310 -175 l70 -45 -50 45 c-64 58 -265
200 -387 273 -229 137 -604 293 -812 338 -12 2 -93 19 -182 37 l-161 33 1 120
1 120 75 0 75 0 3 270 2 270 -425 0 c-372 0 -425 -2 -426 -15z"/>
<path d="M3580 5622 c-69 -4 -245 -31 -340 -53 -286 -66 -593 -197 -824 -350
-103 -69 -267 -191 -262 -196 2 -2 52 26 112 63 282 171 623 293 929 331 77
10 478 10 570 1 341 -37 744 -190 1040 -396 330 -229 576 -515 761 -884 30
-58 54 -109 54 -113 0 -3 9 -26 21 -51 41 -91 114 -344 134 -466 3 -18 7 -44
10 -58 25 -138 25 -598 0 -673 -2 -7 -6 -28 -9 -47 -17 -120 -68 -304 -120
-439 -130 -333 -313 -608 -569 -854 -90 -87 -310 -260 -364 -287 -16 -8 -39
-22 -53 -31 -41 -28 -210 -115 -280 -144 -77 -33 -250 -93 -286 -99 -14 -3
-40 -9 -57 -15 -115 -36 -365 -65 -557 -65 -105 0 -297 10 -335 18 -11 2 -40
7 -65 11 -48 8 -185 40 -235 55 -242 75 -444 165 -615 275 -97 62 -72 33 50
-59 298 -225 638 -376 1015 -451 123 -24 154 -29 285 -42 128 -12 388 -6 519
13 383 55 690 163 1009 356 171 103 268 182 462 378 296 298 487 611 613 1005
45 143 74 266 93 400 3 22 8 51 11 65 3 14 7 124 8 245 4 208 1 257 -26 433
-6 41 -12 88 -15 105 -7 61 -65 269 -100 365 -83 223 -226 481 -381 684 -88
116 -291 324 -403 414 -316 253 -676 425 -1065 509 -60 13 -137 27 -170 30
-33 4 -82 11 -110 15 -46 7 -347 9 -455 2z"/>
<path d="M3495 5056 c-38 -17 -74 -56 -81 -87 -3 -13 -7 -312 -9 -664 -2 -352
-4 -652 -4 -667 -1 -23 -11 -32 -69 -63 -123 -64 -231 -196 -266 -323 -20 -74
-20 -191 2 -276 43 -173 206 -327 389 -370 146 -34 338 17 453 121 225 202
233 546 16 753 -40 39 -147 112 -179 123 -7 2 -12 209 -14 681 l-4 678 -22 33
c-43 67 -138 94 -212 61z"/>
</g>
</svg>
